<svg xmlns="http://www.w3.org/2000/svg" width="400" height="300" viewBox="0 0 400 300">
  <defs>
    <linearGradient id="bg-omok" x1="0" y1="0" x2="1" y2="1">
      <stop offset="0%" stop-color="#5a3f1f"/>
      <stop offset="100%" stop-color="#141527"/>
    </linearGradient>
  </defs>
  <rect width="400" height="300" fill="url(#bg-omok)"/>
  <rect x="100" y="60" width="200" height="180" rx="6" fill="#c9a06a" stroke="#8a6a3f" stroke-width="3"/>
  <g stroke="#8a6a3f" stroke-width="1.5">
    <line x1="130" y1="60" x2="130" y2="240"/>
    <line x1="160" y1="60" x2="160" y2="240"/>
    <line x1="190" y1="60" x2="190" y2="240"/>
    <line x1="220" y1="60" x2="220" y2="240"/>
    <line x1="250" y1="60" x2="250" y2="240"/>
    <line x1="270" y1="60" x2="270" y2="240"/>
    <line x1="100" y1="90" x2="300" y2="90"/>
    <line x1="100" y1="120" x2="300" y2="120"/>
    <line x1="100" y1="150" x2="300" y2="150"/>
    <line x1="100" y1="180" x2="300" y2="180"/>
    <line x1="100" y1="210" x2="300" y2="210"/>
  </g>
  <g>
    <circle cx="160" cy="120" r="12" fill="#0a0a0a"/>
    <circle cx="190" cy="120" r="12" fill="#f4f4f4"/>
    <circle cx="190" cy="150" r="12" fill="#0a0a0a"/>
    <circle cx="220" cy="150" r="12" fill="#f4f4f4"/>
    <circle cx="220" cy="180" r="12" fill="#0a0a0a"/>
    <circle cx="250" cy="180" r="12" fill="#0a0a0a"/>
    <circle cx="130" cy="150" r="12" fill="#f4f4f4"/>
  </g>
</svg>
